PathFileType	4	(X/Y/Z)	OpenSim_Sub01_CSBaseline_Accel.trc
DataRate	CameraRate	NumFrames	NumMarkers	Units	OrigDataRate	OrigDataStartFrame	OrigNumFrames
100	100	20	8	m	100	2976	5950
Frame#	Time	torso_imu_offset_imu	pelvis_imu_offset_imu	tibia_r_imu_offset_imu	femur_r_imu_offset_imu	tibia_l_imu_offset_imu	femur_l_imu_offset_imu	toes_r_imu_offset_imu	toes_l_imu_offset_imu
				X1	Y1	Z1	X2	Y2	Z2	X3	Y3	Z3	X4	Y4	Z4	X5	Y5	Z5	X6	Y6	Z6	X7	Y7	Z7	X8		Y8	Z8	

2976	29.75000000	11.46346636	-0.05995258	7.56996552	12.45550550	-1.31763367	4.11758362	14.77714261	-0.66673215	2.83077499	11.81069124	-0.91741084	1.73015894	10.80223113	-6.24594889	-0.37263271	10.86710980	8.43635179	0.32921008	5.62859231	-1.84723215	7.93708987	12.99068425	0.41249510	13.30665960
2977	29.76000000	10.95525675	0.13192145	7.36193652	11.84159925	-0.95647746	4.18377015	14.55600281	-1.04959591	2.11322150	11.36977326	-0.16737253	1.66457659	9.32187782	-7.41238139	-2.73735879	9.78185837	6.01421435	-0.75166046	6.81552822	-2.20468251	8.18010992	10.40051395	0.97063020	12.02934469
2978	29.77000000	10.23762263	0.36413357	7.08124197	10.99212749	-0.34784265	4.21923229	14.05900521	-1.12604729	1.22595201	10.74293229	0.53777771	1.48853133	7.89100294	-8.00425822	-4.34524358	8.97945254	1.74587980	-1.70523008	8.77030457	-2.83608105	8.70512560	7.74441904	1.77417753	11.16007242
2979	29.78000000	9.52074462	0.65926066	6.68984932	10.11104978	0.45993469	4.25236290	13.25593215	-0.82262388	0.48320554	9.97532547	0.99008463	1.35896747	6.83422300	-8.27662999	-4.31997192	8.05239794	-3.56548689	-2.70801055	11.53515030	-3.83312021	9.38642655	6.29044043	2.14686581	10.94261166
2980	29.79000000	8.90435893	0.98797673	6.25233792	9.28836164	1.28993089	4.28154446	12.33913592	-0.16058244	-0.03948074	9.30435748	1.13809048	1.29172789	6.41973315	-8.17387096	-2.95962463	7.16298583	-8.21189165	-3.61194451	14.40889655	-4.88452786	10.01397043	6.03121264	1.98181496	11.16977215
2981	29.80000000	8.42302555	1.29034779	5.89356774	8.54699030	1.88971786	4.28747333	11.63145362	0.78296667	-0.40749557	9.07999132	1.02284396	1.21956651	6.88102886	-7.45778576	-1.25359555	6.80875936	-9.95733671	-4.07829012	16.25361492	-5.44264086	10.32878889	6.20797759	1.50796007	11.36930995
2982	29.81000000	8.10623076	1.50856894	5.68512316	7.94383192	2.08122671	4.25450648	11.28369423	1.93561751	-0.71022401	9.47188443	0.72502445	1.10665042	8.15139018	-6.03891602	0.12149533	7.30269653	-7.78787232	-3.93412549	16.30841982	-5.24006708	10.24622730	6.27036021	0.93841563	11.27500715
2983	29.82000000	7.97401971	1.59046854	5.57797820	7.61351057	1.85448136	4.17567887	11.05906286	3.23707175	-1.08652912	10.24413814	0.41107024	0.98963422	9.49523666	-4.16494055	1.20684708	8.53629287	-3.43149244	-3.38201665	14.66630480	-4.64159137	10.07198270	6.15461304	0.44131176	11.08798909
2984	29.83000000	8.03896623	1.49236367	5.51385433	7.68058695	1.23391373	4.04768051	10.67903846	4.62640866	-1.65422388	11.10780161	0.24126675	0.91021317	10.15802882	-2.14036901	2.11498453	10.29754552	1.09636701	-2.66470895	11.64782314	-4.11296703	10.18592566	5.87096830	0.16626577	11.04794672
2985	29.84000000	8.24970080	1.25033732	5.50742868	8.05715662	0.36436991	3.89281326	9.97576064	6.01936955	-2.24469426	11.79273591	0.19258668	0.86086611	10.12380093	-0.38547972	2.69208542	11.89472317	4.64292193	-1.91524188	8.73002325	-4.27924874	11.18840203	5.51364882	0.13461284	11.13989823
2986	29.85000000	8.51725277	0.94741985	5.61618866	8.53030807	-0.53845946	3.74842516	8.84735670	7.31752708	-2.52101447	12.04081983	0.13421219	0.80516673	9.81183247	0.61223624	2.62797572	12.35583979	6.56629808	-1.20204720	8.06394659	-5.85538472	13.80453042	5.22618864	0.29199824	11.19896797
2987	29.86000000	8.77802547	0.64389752	5.84950461	8.95672903	-1.29896492	3.63860930	7.34200639	8.33737940	-2.28500196	11.78904263	0.00900762	0.73384595	9.54661157	0.59434145	1.77555346	11.29022724	6.65342640	-0.61662433	10.05471189	-8.69135625	17.63839153	5.10214655	0.58090399	11.13241434
2988	29.87000000	9.02612279	0.34795441	6.10815015	9.35200693	-1.83301199	3.55744951	5.84079377	8.70600917	-1.65290141	11.40939083	-0.07264954	0.69906337	9.42856954	-0.18458316	0.35608304	9.61237564	5.63328305	-0.30380617	11.19237910	-10.70457907	19.78913176	5.12215101	0.93893679	11.01276888
2989	29.88000000	9.25856737	0.06375799	6.28795417	9.74293770	-2.07556250	3.49373346	4.74500940	8.08431394	-0.78833170	11.29059970	0.00378584	0.75431089	9.51041671	-1.39957086	-1.33928466	8.34441533	4.31870849	-0.39835295	7.93527391	-9.81556458	17.44384141	5.24908696	1.30097993	10.92742860
2990	29.89000000	9.42191501	-0.17321102	6.38539204	10.05007016	-2.03094460	3.42349183	4.19952962	6.74686870	0.09522411	11.38668498	0.16189292	0.88102780	9.66518454	-2.71563036	-2.81247181	7.79659833	3.07242772	-0.85653980	1.88287044	-6.67629191	12.19653457	5.42040851	1.58061083	10.88639352
2991	29.90000000	9.43320751	-0.30912448	6.45618925	10.13176847	-1.74449756	3.31532489	4.19720268	5.32953551	0.75535701	11.39585888	0.21302819	1.01832333	9.66060220	-3.79220476	-3.44488641	7.85886680	1.99136219	-1.52913839	-2.34256780	-3.54635226	8.23211569	5.55871301	1.67909888	10.85409556
2992	29.91000000	9.26395768	-0.31655602	6.53014852	9.95062341	-1.28090128	3.15797638	4.56833590	4.31391860	1.05342978	11.15243835	0.05973696	1.14231863	9.41112842	-4.36251118	-2.94743374	8.34367742	1.11397825	-2.22171455	-2.24458606	-1.89900506	7.86995241	5.61735497	1.55293702	10.81386713
2993	29.92000000	9.00806891	-0.22751787	6.57752326	9.70357659	-0.74680701	2.98535000	4.78494846	3.82701262	1.08318211	10.80180358	-0.18873237	1.31293897	9.16165171	-4.32453690	-1.76969130	8.90271724	0.35597866	-2.64201032	-0.15715253	-1.40663119	9.19218145	5.61874491	1.28219173	10.79252685
2994	29.93000000	8.77004993	-0.08200369	6.56607050	9.59604435	-0.25123583	2.83471155	4.34893774	3.93597864	0.96822654	10.51681395	-0.40428582	1.58883792	9.17235920	-3.62980865	-0.44477499	9.20191437	-0.36553569	-2.52361757	1.16229045	-1.50843348	9.89651287	5.59033872	0.96268356	10.81980235
2995	29.94000000	8.59293352	0.08062225	6.52095721	9.59357923	0.13095409	2.71495472	3.57112774	4.58561638	0.81597535	10.31950365	-0.55300880	1.89847836	9.39981330	-2.55241441	0.66359735	9.27878746	-0.94754775	-2.00363730	1.33190594	-1.75193684	9.63077185	5.51521797	0.68025792	10.89470854
